# 3ds Max Wavefront OBJ Exporter v0.97b - (c)2007 guruware
# 创建的文件:12.09.2025 14:39:59

#
# shape C_H
#

v  44.4571 5.8945 -19.8760
v  41.2193 5.8945 -19.8760
v  40.8412 5.8945 -19.8324
v  40.4940 5.8945 -19.7082
v  40.1876 5.8945 -19.5133
v  39.9320 5.8945 -19.2577
v  39.7371 5.8945 -18.9513
v  39.6129 5.8945 -18.6041
v  39.5693 5.8945 -18.2260
v  39.5693 5.8945 -1.5399
v  39.5653 5.8945 -1.5056
v  39.5540 5.8945 -1.4740
v  39.5363 5.8945 -1.4461
v  39.5131 5.8945 -1.4229
v  39.4852 5.8945 -1.4052
v  39.4537 5.8945 -1.3939
v  39.4193 5.8945 -1.3899
v  17.6473 5.8945 -1.3899
v  17.6130 5.8945 -1.3939
v  17.5814 5.8945 -1.4052
v  17.5536 5.8945 -1.4229
v  17.5303 5.8945 -1.4461
v  17.5126 5.8945 -1.4740
v  17.5013 5.8945 -1.5056
v  17.4973 5.8945 -1.5399
v  17.4973 5.8945 -8.9568
v  17.5013 5.8945 -8.9912
v  17.5126 5.8945 -9.0227
v  17.5303 5.8945 -9.0506
v  17.5536 5.8945 -9.0738
v  17.5814 5.8945 -9.0916
v  17.6130 5.8945 -9.1028
v  17.6473 5.8945 -9.1068
v  19.9271 5.8945 -9.1068
# 34 vertices

o C_H
g C_H
l 1 2 3 4 5 6 7 8 9 10 11 12 13 14 15 16 17 18 19 20 21 22 23 24 25 26 27 28 29 30 31 32 33 34

#
# shape B_G
#

v  33.1321 5.8945 -19.8760
v  29.8943 5.8945 -19.8760
v  29.5162 5.8945 -19.8324
v  29.1690 5.8945 -19.7082
v  28.8626 5.8945 -19.5133
v  28.6070 5.8945 -19.2577
v  28.4121 5.8945 -18.9513
v  28.2879 5.8945 -18.6041
v  28.2443 5.8945 -18.2260
v  28.2443 5.8945 -1.3899
v  17.6473 5.8945 -1.3899
v  17.6130 5.8945 -1.3939
v  17.5814 5.8945 -1.4052
v  17.5536 5.8945 -1.4229
v  17.5303 5.8945 -1.4461
v  17.5126 5.8945 -1.4740
v  17.5013 5.8945 -1.5056
v  17.4973 5.8945 -1.5399
v  17.4973 5.8945 -14.4657
v  17.5013 5.8945 -14.5000
v  17.5126 5.8945 -14.5316
v  17.5303 5.8945 -14.5594
v  17.5536 5.8945 -14.5827
v  17.5814 5.8945 -14.6004
v  17.6130 5.8945 -14.6117
v  17.6473 5.8945 -14.6157
v  19.9271 5.8945 -14.6157
# 27 vertices

o B_G
g B_G
l 35 36 37 38 39 40 41 42 43 44 45 46 47 48 49 50 51 52 53 54 55 56 57 58 59 60 61

#
# shape G_B
#

v  33.1321 5.8945 -19.8760
v  29.8943 5.8945 -19.8760
v  29.5162 5.8945 -19.8324
v  29.1690 5.8945 -19.7082
v  28.8626 5.8945 -19.5133
v  28.6070 5.8945 -19.2577
v  28.4121 5.8945 -18.9513
v  28.2879 5.8945 -18.6041
v  28.2443 5.8945 -18.2260
v  28.2443 5.8945 -1.3899
v  17.6473 5.8945 -1.3899
v  17.6130 5.8945 -1.3939
v  17.5814 5.8945 -1.4052
v  17.5536 5.8945 -1.4229
v  17.5303 5.8945 -1.4461
v  17.5126 5.8945 -1.4740
v  17.5013 5.8945 -1.5056
v  17.4973 5.8945 -1.5399
v  17.4973 5.8945 -14.4657
v  17.5013 5.8945 -14.5000
v  17.5126 5.8945 -14.5316
v  17.5303 5.8945 -14.5594
v  17.5536 5.8945 -14.5827
v  17.5814 5.8945 -14.6004
v  17.6130 5.8945 -14.6117
v  17.6473 5.8945 -14.6157
v  19.9271 5.8945 -14.6157
# 27 vertices

o G_B
g G_B
l 62 63 64 65 66 67 68 69 70 71 72 73 74 75 76 77 78 79 80 81 82 83 84 85 86 87 88

#
# shape H_C
#

v  44.4571 5.8945 -19.8760
v  41.2193 5.8945 -19.8760
v  40.8412 5.8945 -19.8324
v  40.4940 5.8945 -19.7082
v  40.1876 5.8945 -19.5133
v  39.9320 5.8945 -19.2577
v  39.7371 5.8945 -18.9513
v  39.6129 5.8945 -18.6041
v  39.5693 5.8945 -18.2260
v  39.5693 5.8945 -1.5399
v  39.5653 5.8945 -1.5056
v  39.5540 5.8945 -1.4740
v  39.5363 5.8945 -1.4461
v  39.5131 5.8945 -1.4229
v  39.4852 5.8945 -1.4052
v  39.4537 5.8945 -1.3939
v  39.4193 5.8945 -1.3899
v  17.6473 5.8945 -1.3899
v  17.6130 5.8945 -1.3939
v  17.5814 5.8945 -1.4052
v  17.5536 5.8945 -1.4229
v  17.5303 5.8945 -1.4461
v  17.5126 5.8945 -1.4740
v  17.5013 5.8945 -1.5056
v  17.4973 5.8945 -1.5399
v  17.4973 5.8945 -8.9568
v  17.5013 5.8945 -8.9912
v  17.5126 5.8945 -9.0227
v  17.5303 5.8945 -9.0506
v  17.5536 5.8945 -9.0738
v  17.5814 5.8945 -9.0916
v  17.6130 5.8945 -9.1028
v  17.6473 5.8945 -9.1068
v  19.9271 5.8945 -9.1068
# 34 vertices

o H_C
g H_C
l 89 90 91 92 93 94 95 96 97 98 99 100 101 102 103 104 105 106 107 108 109 110 111 112 113 114 115 116 117 118 119 120 121 122

#
# shape M_D
#

v  54.2358 5.8945 -19.8804
v  52.2550 5.8945 -19.8804
v  51.9594 5.8945 -19.8463
v  51.6880 5.8945 -19.7492
v  51.4485 5.8945 -19.5968
v  51.2486 5.8945 -19.3970
v  51.0962 5.8945 -19.1574
v  50.9991 5.8945 -18.8860
v  50.9650 5.8945 -18.5904
v  50.9650 5.8945 -2.6799
v  50.9308 5.8945 -2.3843
v  50.8335 5.8945 -2.1129
v  50.6808 5.8945 -1.8734
v  50.4805 5.8945 -1.6735
v  50.2404 5.8945 -1.5212
v  49.9684 5.8945 -1.4240
v  49.6721 5.8945 -1.3899
v  17.6473 5.8945 -1.3899
v  17.6130 5.8945 -1.3939
v  17.5814 5.8945 -1.4052
v  17.5536 5.8945 -1.4229
v  17.5303 5.8945 -1.4461
v  17.5126 5.8945 -1.4740
v  17.5013 5.8945 -1.5056
v  17.4973 5.8945 -1.5399
v  17.4973 5.8945 -3.5842
v  17.5013 5.8945 -3.6186
v  17.5126 5.8945 -3.6502
v  17.5303 5.8945 -3.6780
v  17.5536 5.8945 -3.7012
v  17.5814 5.8945 -3.7190
v  17.6130 5.8945 -3.7303
v  17.6473 5.8945 -3.7342
v  19.9271 5.8945 -3.7342
# 34 vertices

o M_D
g M_D
l 123 124 125 126 127 128 129 130 131 132 133 134 135 136 137 138 139 140 141 142 143 144 145 146 147 148 149 150 151 152 153 154 155 156

#
# shape D_M
#

v  54.2358 5.8945 -19.8804
v  52.2550 5.8945 -19.8804
v  51.9594 5.8945 -19.8463
v  51.6880 5.8945 -19.7492
v  51.4485 5.8945 -19.5968
v  51.2486 5.8945 -19.3970
v  51.0962 5.8945 -19.1574
v  50.9991 5.8945 -18.8860
v  50.9650 5.8945 -18.5904
v  50.9650 5.8945 -2.6799
v  50.9308 5.8945 -2.3843
v  50.8335 5.8945 -2.1129
v  50.6808 5.8945 -1.8734
v  50.4805 5.8945 -1.6735
v  50.2404 5.8945 -1.5212
v  49.9684 5.8945 -1.4240
v  49.6721 5.8945 -1.3899
v  17.6473 5.8945 -1.3899
v  17.6130 5.8945 -1.3939
v  17.5814 5.8945 -1.4052
v  17.5536 5.8945 -1.4229
v  17.5303 5.8945 -1.4461
v  17.5126 5.8945 -1.4740
v  17.5013 5.8945 -1.5056
v  17.4973 5.8945 -1.5399
v  17.4973 5.8945 -3.5842
v  17.5013 5.8945 -3.6186
v  17.5126 5.8945 -3.6502
v  17.5303 5.8945 -3.6780
v  17.5536 5.8945 -3.7012
v  17.5814 5.8945 -3.7190
v  17.6130 5.8945 -3.7303
v  17.6473 5.8945 -3.7342
v  19.9271 5.8945 -3.7342
# 34 vertices

o D_M
g D_M
l 157 158 159 160 161 162 163 164 165 166 167 168 169 170 171 172 173 174 175 176 177 178 179 180 181 182 183 184 185 186 187 188 189 190

